<?xml version="1.0" encoding="UTF-8"?>
<!-- Generator: $$$/GeneralStr/196=Adobe Illustrator 27.6.0, SVG Export Plug-In . SVG Version: 6.00 Build 0)  -->
<svg xmlns="http://www.w3.org/2000/svg" xmlns:xlink="http://www.w3.org/1999/xlink" version="1.1" x="0px" y="0px" viewBox="0 0 841.89 268.2" style="enable-background:new 0 0 841.89 268.2;" xml:space="preserve">
<style type="text/css">
	.st0{fill:#007C1D;}
</style>
<g id="Vorlage">
</g>
<g id="Logo_Vektor">
	<g>
		<g>
			<polygon points="266.08,91.4 233.79,0 95.77,0 62.78,91.4    "></polygon>
			<polyline points="104.03,268.2 118.48,210.38 206.65,210.38 224.43,268.2 328.86,268.2 269.75,101.79 59.04,101.79 0,268.2         "></polyline>
		</g>
		<g>
			<path d="M335.94,101.79V268.2h102.71v-74.58c0,0,66.64-0.3,87.77-0.3c34.26,0,78.54-26.65,81.37-91.54H335.94z"></path>
			<path d="M607.86,91.4C606.27,24.53,562.34,0,526.42,0c-26.88,0-87.77,0-87.77,0H335.94v91.4H607.86z"></path>
		</g>
		<g>
			<rect x="616.14" class="st0" width="99.21" height="91.58"></rect>
			<polygon points="715.34,101.97 616.14,101.97 616.14,268.2 841.89,268.2 841.89,191.6 715.34,191.6    "></polygon>
		</g>
	</g>
</g>
</svg>
